<svg width="22" height="22" viewBox="0 0 22 22" fill="none" xmlns="http://www.w3.org/2000/svg">
<circle cx="11" cy="11" r="11" fill="#870000"/>
<path d="M11 3.5C13.0378 3.5 13.292 3.5075 14.0915 3.545C14.8902 3.5825 15.434 3.70775 15.9125 3.89375C16.4075 4.08425 16.8245 4.34225 17.2415 4.7585C17.6229 5.13342 17.918 5.58694 18.1063 6.0875C18.2915 6.56525 18.4175 7.10975 18.455 7.9085C18.4903 8.708 18.5 8.96225 18.5 11C18.5 13.0378 18.4925 13.292 18.455 14.0915C18.4175 14.8902 18.2915 15.434 18.1063 15.9125C17.9185 16.4133 17.6233 16.867 17.2415 17.2415C16.8665 17.6227 16.413 17.9178 15.9125 18.1063C15.4347 18.2915 14.8902 18.4175 14.0915 18.455C13.292 18.4903 13.0378 18.5 11 18.5C8.96225 18.5 8.708 18.4925 7.9085 18.455C7.10975 18.4175 6.566 18.2915 6.0875 18.1063C5.58674 17.9184 5.13315 17.6232 4.7585 17.2415C4.37705 16.8666 4.08195 16.4131 3.89375 15.9125C3.70775 15.4347 3.5825 14.8902 3.545 14.0915C3.50975 13.292 3.5 13.0378 3.5 11C3.5 8.96225 3.5075 8.708 3.545 7.9085C3.5825 7.109 3.70775 6.566 3.89375 6.0875C4.08143 5.58663 4.3766 5.13299 4.7585 4.7585C5.13325 4.37692 5.58682 4.0818 6.0875 3.89375C6.566 3.70775 7.109 3.5825 7.9085 3.545C8.708 3.50975 8.96225 3.5 11 3.5ZM11 7.25C10.0054 7.25 9.05161 7.64509 8.34835 8.34835C7.64509 9.05161 7.25 10.0054 7.25 11C7.25 11.9946 7.64509 12.9484 8.34835 13.6517C9.05161 14.3549 10.0054 14.75 11 14.75C11.9946 14.75 12.9484 14.3549 13.6517 13.6517C14.3549 12.9484 14.75 11.9946 14.75 11C14.75 10.0054 14.3549 9.05161 13.6517 8.34835C12.9484 7.64509 11.9946 7.25 11 7.25V7.25ZM15.875 7.0625C15.875 6.81386 15.7762 6.5754 15.6004 6.39959C15.4246 6.22377 15.1861 6.125 14.9375 6.125C14.6889 6.125 14.4504 6.22377 14.2746 6.39959C14.0988 6.5754 14 6.81386 14 7.0625C14 7.31114 14.0988 7.5496 14.2746 7.72541C14.4504 7.90123 14.6889 8 14.9375 8C15.1861 8 15.4246 7.90123 15.6004 7.72541C15.7762 7.5496 15.875 7.31114 15.875 7.0625ZM11 8.75C11.5967 8.75 12.169 8.98705 12.591 9.40901C13.0129 9.83097 13.25 10.4033 13.25 11C13.25 11.5967 13.0129 12.169 12.591 12.591C12.169 13.0129 11.5967 13.25 11 13.25C10.4033 13.25 9.83097 13.0129 9.40901 12.591C8.98705 12.169 8.75 11.5967 8.75 11C8.75 10.4033 8.98705 9.83097 9.40901 9.40901C9.83097 8.98705 10.4033 8.75 11 8.75V8.75Z" fill="white"/>
</svg>
