<svg width="22" height="22" viewBox="0 0 22 22" fill="none" xmlns="http://www.w3.org/2000/svg">
<circle cx="11" cy="11" r="11" fill="#870000"/>
<path d="M18.1572 6.8735C18.5 8.21 18.5 11 18.5 11C18.5 11 18.5 13.79 18.1572 15.1265C17.9667 15.8653 17.4095 16.4465 16.7037 16.643C15.422 17 11 17 11 17C11 17 6.58025 17 5.29625 16.643C4.5875 16.4435 4.031 15.863 3.84275 15.1265C3.5 13.79 3.5 11 3.5 11C3.5 11 3.5 8.21 3.84275 6.8735C4.03325 6.13475 4.5905 5.5535 5.29625 5.357C6.58025 5 11 5 11 5C11 5 15.422 5 16.7037 5.357C17.4125 5.5565 17.969 6.137 18.1572 6.8735V6.8735ZM9.5 13.625L14 11L9.5 8.375V13.625Z" fill="white"/>
</svg>
