<svg width="22" height="22" viewBox="0 0 22 22" fill="none" xmlns="http://www.w3.org/2000/svg">
<circle cx="11" cy="11" r="11" fill="#870000"/>
<path d="M18.6212 6.24219C18.0487 6.49546 17.4415 6.66179 16.8197 6.73569C17.475 6.34376 17.9655 5.72695 18.1997 5.00019C17.5847 5.36619 16.9105 5.62269 16.2077 5.76144C15.7357 5.25637 15.11 4.92141 14.428 4.80863C13.7459 4.69584 13.0457 4.81156 12.4362 5.13778C11.8267 5.464 11.342 5.98245 11.0576 6.61253C10.7731 7.24262 10.7048 7.94902 10.8632 8.62194C9.61607 8.55943 8.39598 8.23533 7.2822 7.67069C6.16842 7.10604 5.18583 6.31347 4.39823 5.34444C4.11945 5.82328 3.97295 6.36761 3.97373 6.92169C3.97373 8.00919 4.52723 8.96994 5.36873 9.53244C4.87074 9.51676 4.38371 9.38227 3.94823 9.14019V9.17919C3.94838 9.90346 4.19901 10.6054 4.65762 11.166C5.11623 11.7266 5.7546 12.1113 6.46448 12.2549C6.0022 12.3802 5.51746 12.3987 5.04698 12.3089C5.24713 12.9324 5.63724 13.4776 6.16268 13.8683C6.68812 14.259 7.32258 14.4755 7.97723 14.4877C7.3266 14.9987 6.58162 15.3764 5.7849 15.5993C4.98817 15.8222 4.15533 15.8859 3.33398 15.7867C4.76776 16.7088 6.43681 17.1983 8.14148 17.1967C13.9112 17.1967 17.0665 12.4169 17.0665 8.27169C17.0665 8.13669 17.0627 8.00019 17.0567 7.86669C17.6709 7.42281 18.2009 6.87295 18.622 6.24294L18.6212 6.24219Z" fill="white"/>
</svg>
