<svg width="164" height="22" viewBox="0 0 164 22" fill="none" xmlns="http://www.w3.org/2000/svg">
<circle cx="153" cy="11" r="11" fill="#870000"/>
<g clip-path="url(#clip0_79_4109)">
<path d="M160.157 6.8735C160.5 8.21 160.5 11 160.5 11C160.5 11 160.5 13.79 160.157 15.1265C159.967 15.8653 159.41 16.4465 158.704 16.643C157.422 17 153 17 153 17C153 17 148.58 17 147.296 16.643C146.587 16.4435 146.031 15.863 145.843 15.1265C145.5 13.79 145.5 11 145.5 11C145.5 11 145.5 8.21 145.843 6.8735C146.033 6.13475 146.59 5.5535 147.296 5.357C148.58 5 153 5 153 5C153 5 157.422 5 158.704 5.357C159.412 5.5565 159.969 6.137 160.157 6.8735ZM151.5 13.625L156 11L151.5 8.375V13.625Z" fill="white"/>
</g>
<circle cx="57" cy="11" r="11" fill="#870000"/>
<g clip-path="url(#clip1_79_4109)">
<path d="M57 3.5C59.0378 3.5 59.292 3.5075 60.0915 3.545C60.8903 3.5825 61.434 3.70775 61.9125 3.89375C62.4075 4.08425 62.8245 4.34225 63.2415 4.7585C63.6229 5.13342 63.918 5.58694 64.1063 6.0875C64.2915 6.56525 64.4175 7.10975 64.455 7.9085C64.4903 8.708 64.5 8.96225 64.5 11C64.5 13.0378 64.4925 13.292 64.455 14.0915C64.4175 14.8903 64.2915 15.434 64.1063 15.9125C63.9185 16.4133 63.6233 16.867 63.2415 17.2415C62.8665 17.6227 62.413 17.9178 61.9125 18.1063C61.4347 18.2915 60.8903 18.4175 60.0915 18.455C59.292 18.4903 59.0378 18.5 57 18.5C54.9622 18.5 54.708 18.4925 53.9085 18.455C53.1097 18.4175 52.566 18.2915 52.0875 18.1063C51.5867 17.9184 51.1331 17.6232 50.7585 17.2415C50.3771 16.8666 50.0819 16.4131 49.8938 15.9125C49.7078 15.4347 49.5825 14.8903 49.545 14.0915C49.5097 13.292 49.5 13.0378 49.5 11C49.5 8.96225 49.5075 8.708 49.545 7.9085C49.5825 7.109 49.7078 6.566 49.8938 6.0875C50.0814 5.58663 50.3766 5.13299 50.7585 4.7585C51.1333 4.37692 51.5868 4.0818 52.0875 3.89375C52.566 3.70775 53.109 3.5825 53.9085 3.545C54.708 3.50975 54.9622 3.5 57 3.5ZM57 7.25C56.0054 7.25 55.0516 7.64509 54.3483 8.34835C53.6451 9.05161 53.25 10.0054 53.25 11C53.25 11.9946 53.6451 12.9484 54.3483 13.6517C55.0516 14.3549 56.0054 14.75 57 14.75C57.9946 14.75 58.9484 14.3549 59.6517 13.6517C60.3549 12.9484 60.75 11.9946 60.75 11C60.75 10.0054 60.3549 9.05161 59.6517 8.34835C58.9484 7.64509 57.9946 7.25 57 7.25ZM61.875 7.0625C61.875 6.81386 61.7762 6.5754 61.6004 6.39959C61.4246 6.22377 61.1861 6.125 60.9375 6.125C60.6889 6.125 60.4504 6.22377 60.2746 6.39959C60.0988 6.5754 60 6.81386 60 7.0625C60 7.31114 60.0988 7.5496 60.2746 7.72541C60.4504 7.90123 60.6889 8 60.9375 8C61.1861 8 61.4246 7.90123 61.6004 7.72541C61.7762 7.5496 61.875 7.31114 61.875 7.0625ZM57 8.75C57.5967 8.75 58.169 8.98705 58.591 9.40901C59.0129 9.83097 59.25 10.4033 59.25 11C59.25 11.5967 59.0129 12.169 58.591 12.591C58.169 13.0129 57.5967 13.25 57 13.25C56.4033 13.25 55.831 13.0129 55.409 12.591C54.9871 12.169 54.75 11.5967 54.75 11C54.75 10.4033 54.9871 9.83097 55.409 9.40901C55.831 8.98705 56.4033 8.75 57 8.75Z" fill="white"/>
</g>
<circle cx="105" cy="11" r="11" fill="#870000"/>
<g clip-path="url(#clip2_79_4109)">
<path d="M112.621 6.24219C112.049 6.49546 111.441 6.66179 110.82 6.73569C111.475 6.34376 111.966 5.72695 112.2 5.00019C111.585 5.36619 110.91 5.62269 110.208 5.76144C109.736 5.25637 109.11 4.92141 108.428 4.80863C107.746 4.69584 107.046 4.81156 106.436 5.13778C105.827 5.464 105.342 5.98245 105.058 6.61253C104.773 7.24262 104.705 7.94902 104.863 8.62194C103.616 8.55943 102.396 8.23533 101.282 7.67069C100.168 7.10604 99.1858 6.31347 98.3982 5.34444C98.1195 5.82328 97.973 6.36761 97.9737 6.92169C97.9737 8.00919 98.5272 8.96994 99.3687 9.53244C98.8707 9.51676 98.3837 9.38227 97.9482 9.14019V9.17919C97.9484 9.90346 98.199 10.6054 98.6576 11.166C99.1162 11.7266 99.7546 12.1113 100.464 12.2549C100.002 12.3802 99.5175 12.3987 99.047 12.3089C99.2471 12.9324 99.6372 13.4776 100.163 13.8683C100.688 14.259 101.323 14.4755 101.977 14.4877C101.327 14.9987 100.582 15.3764 99.7849 15.5993C98.9882 15.8222 98.1553 15.8859 97.334 15.7867C98.7678 16.7088 100.437 17.1983 102.141 17.1967C107.911 17.1967 111.066 12.4169 111.066 8.27169C111.066 8.13669 111.063 8.00019 111.057 7.86669C111.671 7.42281 112.201 6.87295 112.622 6.24294L112.621 6.24219Z" fill="white"/>
</g>
<defs>
<clipPath id="clip0_79_4109">
<rect width="18" height="18" fill="white" transform="translate(144 2)"/>
</clipPath>
<clipPath id="clip1_79_4109">
<rect width="18" height="18" fill="white" transform="translate(48 2)"/>
</clipPath>
<clipPath id="clip2_79_4109">
<rect width="18" height="18" fill="white" transform="translate(96 2)"/>
</clipPath>
</defs>
</svg>
