<svg width="24" height="24" viewBox="0 0 24 24" fill="none" xmlns="http://www.w3.org/2000/svg">
<path d="M12 0C17.523 0 22 4.477 22 10C22 15.523 17.523 20 12 20C6.477 20 2 15.523 2 10C2 4.477 6.477 0 12 0ZM12 4C11.7348 4 11.4804 4.10536 11.2929 4.29289C11.1054 4.48043 11 4.73478 11 5V10C11.0001 10.2652 11.1055 10.5195 11.293 10.707L14.293 13.707C14.4816 13.8892 14.7342 13.99 14.9964 13.9877C15.2586 13.9854 15.5094 13.8802 15.6948 13.6948C15.8802 13.5094 15.9854 13.2586 15.9877 12.9964C15.99 12.7342 15.8892 12.4816 15.707 12.293L13 9.586V5C13 4.73478 12.8946 4.48043 12.7071 4.29289C12.5196 4.10536 12.2652 4 12 4Z" fill="#B11F29"/>
</svg>
