<svg width="20" height="14" viewBox="0 0 20 14" fill="none" xmlns="http://www.w3.org/2000/svg">
<path d="M10 0.712891C15.523 0.712891 20 3.54146 20 7.03089C20 10.5203 15.523 13.3489 10 13.3489C4.477 13.3489 0 10.5203 0 7.03089C0 3.54146 4.477 0.712891 10 0.712891ZM10 3.24009C9.73478 3.24009 9.48043 3.30666 9.29289 3.42514C9.10536 3.54363 9 3.70433 9 3.87189V7.03089C9.00006 7.19844 9.10545 7.35912 9.293 7.47757L12.293 9.37297C12.4816 9.48806 12.7342 9.55174 12.9964 9.5503C13.2586 9.54886 13.5094 9.48242 13.6948 9.36528C13.8802 9.24814 13.9854 9.08967 13.9877 8.92402C13.99 8.75836 13.8892 8.59877 13.707 8.47961L11 6.76933V3.87189C11 3.70433 10.8946 3.54363 10.7071 3.42514C10.5196 3.30666 10.2652 3.24009 10 3.24009Z" fill="#B11F29"/>
</svg>
