<svg width="20" height="14" viewBox="0 0 20 14" fill="none" xmlns="http://www.w3.org/2000/svg">
<path d="M10 0.553955C15.523 0.553955 20 3.38252 20 6.87195C20 10.3614 15.523 13.19 10 13.19C4.477 13.19 0 10.3614 0 6.87195C0 3.38252 4.477 0.553955 10 0.553955ZM10 3.08116C9.73478 3.08116 9.48043 3.14772 9.29289 3.26621C9.10536 3.38469 9 3.54539 9 3.71295V6.87195C9.00006 7.03951 9.10545 7.20018 9.293 7.31864L12.293 9.21404C12.4816 9.32913 12.7342 9.39281 12.9964 9.39137C13.2586 9.38993 13.5094 9.32348 13.6948 9.20634C13.8802 9.0892 13.9854 8.93074 13.9877 8.76508C13.99 8.59943 13.8892 8.43983 13.707 8.32067L11 6.61039V3.71295C11 3.54539 10.8946 3.38469 10.7071 3.26621C10.5196 3.14772 10.2652 3.08116 10 3.08116Z" fill="#B11F29"/>
</svg>
