<svg width="14" height="14" viewBox="0 0 14 14" fill="none" xmlns="http://www.w3.org/2000/svg">
<path d="M13.9993 1.66195C13.475 1.94721 12.9189 2.13455 12.3496 2.21778C12.9497 1.77636 13.3988 1.08164 13.6133 0.263089C13.0501 0.675315 12.4327 0.964211 11.7891 1.12048C11.3569 0.551629 10.7839 0.174362 10.1593 0.0473339C9.53472 -0.0796944 8.8935 0.0506337 8.33535 0.418057C7.77719 0.78548 7.33337 1.36941 7.07288 2.07907C6.81239 2.78873 6.74983 3.58436 6.89492 4.34226C5.75282 4.27186 4.63553 3.90683 3.61558 3.27087C2.59563 2.63491 1.69583 1.74224 0.974588 0.650818C0.719293 1.19013 0.585134 1.80321 0.585852 2.42727C0.585852 3.65212 1.09272 4.73422 1.86332 5.36776C1.40729 5.3501 0.961286 5.19863 0.5625 4.92597V4.96989C0.562638 5.78564 0.792149 6.57623 1.21212 7.20762C1.63209 7.839 2.21668 8.27232 2.86676 8.43411C2.44342 8.57521 1.99952 8.59601 1.56868 8.49493C1.75197 9.19709 2.10921 9.81118 2.59038 10.2512C3.07155 10.6912 3.65256 10.9352 4.25206 10.9489C3.65624 11.5244 2.97402 11.9498 2.24442 12.2009C1.51482 12.4519 0.752148 12.5236 0 12.4119C1.31298 13.4504 2.84141 14.0018 4.40247 14C9.68613 14 12.5756 8.61657 12.5756 3.94778C12.5756 3.79573 12.5721 3.64199 12.5666 3.49163C13.129 2.99169 13.6144 2.37238 14 1.6628L13.9993 1.66195Z" fill="white"/>
</svg>
