<svg width="15" height="15" viewBox="0 0 15 15" fill="none" xmlns="http://www.w3.org/2000/svg">
<path d="M14.9992 11.1833V14.13C14.9993 14.341 14.9193 14.5441 14.7755 14.6985C14.6317 14.8528 14.4347 14.9469 14.2242 14.9617C13.8601 14.9867 13.5626 15 13.3326 15C5.96884 15 0 9.03083 0 1.66667C0 1.43667 0.0124993 1.13917 0.0383312 0.775C0.053099 0.564537 0.147143 0.367509 0.301486 0.223674C0.45583 0.079839 0.658982 -9.53609e-05 0.869952 2.13816e-07H3.81645C3.91981 -0.000104445 4.01952 0.0382159 4.09621 0.107517C4.1729 0.176818 4.2211 0.272152 4.23143 0.375C4.2506 0.566667 4.2681 0.719167 4.28476 0.835C4.45037 1.99077 4.78974 3.11486 5.29137 4.16917C5.37054 4.33583 5.31887 4.535 5.16888 4.64167L3.37065 5.92667C4.47013 8.48871 6.51176 10.5305 9.07366 11.63L10.3569 9.835C10.4094 9.76167 10.4859 9.70907 10.5732 9.68638C10.6604 9.66369 10.7529 9.67234 10.8344 9.71083C11.8885 10.2116 13.0123 10.5501 14.1675 10.715C14.2834 10.7317 14.4359 10.75 14.6259 10.7683C14.7285 10.7789 14.8237 10.8271 14.8928 10.9038C14.9619 10.9805 15.0001 11.0801 15 11.1833H14.9992Z" fill="white"/>
</svg>
