<svg width="220" height="220" viewBox="0 0 220 220" fill="none" xmlns="http://www.w3.org/2000/svg">
<mask id="path-1-inside-1_125_2854" fill="white">
<path d="M217.929 110C219.073 110 220.002 110.928 219.981 112.072C219.486 138.34 209.603 163.591 192.082 183.23C174.561 202.868 150.596 215.557 124.555 219.033C123.421 219.184 122.393 218.366 122.263 217.23V217.23C122.133 216.093 122.95 215.069 124.084 214.916C149.115 211.557 172.147 199.352 188.991 180.472C205.834 161.592 215.343 137.322 215.837 112.072C215.86 110.928 216.785 110 217.929 110V110Z"/>
</mask>
<path d="M217.929 110C219.073 110 220.002 110.928 219.981 112.072C219.486 138.34 209.603 163.591 192.082 183.23C174.561 202.868 150.596 215.557 124.555 219.033C123.421 219.184 122.393 218.366 122.263 217.23V217.23C122.133 216.093 122.95 215.069 124.084 214.916C149.115 211.557 172.147 199.352 188.991 180.472C205.834 161.592 215.343 137.322 215.837 112.072C215.86 110.928 216.785 110 217.929 110V110Z" stroke="#AB1E28" stroke-width="8" mask="url(#path-1-inside-1_125_2854)"/>
<mask id="path-2-inside-2_125_2854" fill="white">
<path d="M110 2.07128C110 0.927343 110.928 -0.00203939 112.072 0.0194859C138.34 0.513854 163.591 10.3974 183.23 27.9182C202.868 45.4389 215.557 69.4035 219.033 95.4454C219.184 96.5792 218.366 97.6067 217.23 97.7367V97.7367C216.093 97.8667 215.069 97.05 214.916 95.9162C211.557 70.885 199.352 47.853 180.472 31.0094C161.592 14.1657 137.322 4.65664 112.072 4.16283C110.928 4.14046 110 3.21523 110 2.07128V2.07128Z"/>
</mask>
<path d="M110 2.07128C110 0.927343 110.928 -0.00203939 112.072 0.0194859C138.34 0.513854 163.591 10.3974 183.23 27.9182C202.868 45.4389 215.557 69.4035 219.033 95.4454C219.184 96.5792 218.366 97.6067 217.23 97.7367V97.7367C216.093 97.8667 215.069 97.05 214.916 95.9162C211.557 70.885 199.352 47.853 180.472 31.0094C161.592 14.1657 137.322 4.65664 112.072 4.16283C110.928 4.14046 110 3.21523 110 2.07128V2.07128Z" stroke="#AB1E28" stroke-width="8" mask="url(#path-2-inside-2_125_2854)"/>
<mask id="path-3-inside-3_125_2854" fill="white">
<path d="M2.07128 110C0.927338 110 -0.00204424 109.072 0.019481 107.928C0.513848 81.6603 10.3974 56.4092 27.9182 36.7704C45.4389 17.1317 69.4035 4.44301 95.4453 0.967142C96.5792 0.815799 97.6067 1.63373 97.7367 2.77027V2.77027C97.8666 3.9068 97.05 4.93146 95.9162 5.08364C70.885 8.44337 47.853 20.6485 31.0093 39.5282C14.1657 58.408 4.65663 82.6776 4.16282 107.928C4.14045 109.072 3.21522 110 2.07128 110V110Z"/>
</mask>
<path d="M2.07128 110C0.927338 110 -0.00204424 109.072 0.019481 107.928C0.513848 81.6603 10.3974 56.4092 27.9182 36.7704C45.4389 17.1317 69.4035 4.44301 95.4453 0.967142C96.5792 0.815799 97.6067 1.63373 97.7367 2.77027V2.77027C97.8666 3.9068 97.05 4.93146 95.9162 5.08364C70.885 8.44337 47.853 20.6485 31.0093 39.5282C14.1657 58.408 4.65663 82.6776 4.16282 107.928C4.14045 109.072 3.21522 110 2.07128 110V110Z" stroke="#AB1E28" stroke-width="8" mask="url(#path-3-inside-3_125_2854)"/>
<mask id="path-4-inside-4_125_2854" fill="white">
<path d="M110 217.929C110 219.073 109.072 220.002 107.928 219.981C81.6602 219.486 56.4091 209.603 36.7704 192.082C17.1317 174.561 4.44299 150.596 0.967126 124.555C0.815783 123.421 1.63372 122.393 2.77025 122.263V122.263C3.90678 122.133 4.93145 122.95 5.08362 124.084C8.44335 149.115 20.6485 172.147 39.5282 188.991C58.4079 205.834 82.6776 215.343 107.928 215.837C109.072 215.86 110 216.785 110 217.929V217.929Z"/>
</mask>
<path d="M110 217.929C110 219.073 109.072 220.002 107.928 219.981C81.6602 219.486 56.4091 209.603 36.7704 192.082C17.1317 174.561 4.44299 150.596 0.967126 124.555C0.815783 123.421 1.63372 122.393 2.77025 122.263V122.263C3.90678 122.133 4.93145 122.95 5.08362 124.084C8.44335 149.115 20.6485 172.147 39.5282 188.991C58.4079 205.834 82.6776 215.343 107.928 215.837C109.072 215.86 110 216.785 110 217.929V217.929Z" stroke="#AB1E28" stroke-width="8" mask="url(#path-4-inside-4_125_2854)"/>
</svg>
