<svg width="221" height="220" viewBox="0 0 221 220" fill="none" xmlns="http://www.w3.org/2000/svg">
<mask id="path-1-inside-1_125_2843" fill="white">
<path d="M217.929 110C219.073 110 220.002 110.928 219.981 112.072C219.486 138.34 209.603 163.591 192.082 183.23C174.561 202.868 150.596 215.557 124.555 219.033C123.421 219.184 122.393 218.366 122.263 217.23V217.23C122.133 216.093 122.95 215.069 124.084 214.916C149.115 211.557 172.147 199.352 188.991 180.472C205.834 161.592 215.343 137.322 215.837 112.072C215.86 110.928 216.785 110 217.929 110V110Z"/>
</mask>
<path d="M217.929 110C219.073 110 220.002 110.928 219.981 112.072C219.486 138.34 209.603 163.591 192.082 183.23C174.561 202.868 150.596 215.557 124.555 219.033C123.421 219.184 122.393 218.366 122.263 217.23V217.23C122.133 216.093 122.95 215.069 124.084 214.916C149.115 211.557 172.147 199.352 188.991 180.472C205.834 161.592 215.343 137.322 215.837 112.072C215.86 110.928 216.785 110 217.929 110V110Z" stroke="#AB1E28" stroke-width="8" mask="url(#path-1-inside-1_125_2843)"/>
<mask id="path-2-inside-2_125_2843" fill="white">
<path d="M110 2.07128C110 0.927343 110.928 -0.00203939 112.072 0.0194859C138.34 0.513854 163.591 10.3974 183.23 27.9182C202.868 45.4389 215.557 69.4035 219.033 95.4454C219.184 96.5792 218.366 97.6067 217.23 97.7367V97.7367C216.093 97.8667 215.069 97.05 214.916 95.9162C211.557 70.885 199.352 47.853 180.472 31.0094C161.592 14.1657 137.322 4.65664 112.072 4.16283C110.928 4.14046 110 3.21523 110 2.07128V2.07128Z"/>
</mask>
<path d="M110 2.07128C110 0.927343 110.928 -0.00203939 112.072 0.0194859C138.34 0.513854 163.591 10.3974 183.23 27.9182C202.868 45.4389 215.557 69.4035 219.033 95.4454C219.184 96.5792 218.366 97.6067 217.23 97.7367V97.7367C216.093 97.8667 215.069 97.05 214.916 95.9162C211.557 70.885 199.352 47.853 180.472 31.0094C161.592 14.1657 137.322 4.65664 112.072 4.16283C110.928 4.14046 110 3.21523 110 2.07128V2.07128Z" stroke="#AB1E28" stroke-width="8" mask="url(#path-2-inside-2_125_2843)"/>
<mask id="path-3-inside-3_125_2843" fill="white">
<path d="M3.07128 110C1.92734 110 0.997956 109.072 1.01948 107.928C1.51385 81.6603 11.3974 56.4092 28.9182 36.7704C46.4389 17.1317 70.4035 4.44301 96.4453 0.967142C97.5792 0.815799 98.6067 1.63373 98.7367 2.77027V2.77027C98.8666 3.9068 98.05 4.93146 96.9162 5.08364C71.885 8.44337 48.853 20.6485 32.0093 39.5282C15.1657 58.408 5.65663 82.6776 5.16282 107.928C5.14045 109.072 4.21522 110 3.07128 110V110Z"/>
</mask>
<path d="M3.07128 110C1.92734 110 0.997956 109.072 1.01948 107.928C1.51385 81.6603 11.3974 56.4092 28.9182 36.7704C46.4389 17.1317 70.4035 4.44301 96.4453 0.967142C97.5792 0.815799 98.6067 1.63373 98.7367 2.77027V2.77027C98.8666 3.9068 98.05 4.93146 96.9162 5.08364C71.885 8.44337 48.853 20.6485 32.0093 39.5282C15.1657 58.408 5.65663 82.6776 5.16282 107.928C5.14045 109.072 4.21522 110 3.07128 110V110Z" stroke="#AB1E28" stroke-width="8" mask="url(#path-3-inside-3_125_2843)"/>
<mask id="path-4-inside-4_125_2843" fill="white">
<path d="M111 217.929C111 219.073 110.072 220.002 108.928 219.981C82.6602 219.486 57.4091 209.603 37.7704 192.082C18.1317 174.561 5.44299 150.596 1.96713 124.555C1.81578 123.421 2.63372 122.393 3.77025 122.263V122.263C4.90678 122.133 5.93145 122.95 6.08362 124.084C9.44335 149.115 21.6485 172.147 40.5282 188.991C59.4079 205.834 83.6776 215.343 108.928 215.837C110.072 215.86 111 216.785 111 217.929V217.929Z"/>
</mask>
<path d="M111 217.929C111 219.073 110.072 220.002 108.928 219.981C82.6602 219.486 57.4091 209.603 37.7704 192.082C18.1317 174.561 5.44299 150.596 1.96713 124.555C1.81578 123.421 2.63372 122.393 3.77025 122.263V122.263C4.90678 122.133 5.93145 122.95 6.08362 124.084C9.44335 149.115 21.6485 172.147 40.5282 188.991C59.4079 205.834 83.6776 215.343 108.928 215.837C110.072 215.86 111 216.785 111 217.929V217.929Z" stroke="#AB1E28" stroke-width="8" mask="url(#path-4-inside-4_125_2843)"/>
</svg>
